# xmcd CD database file
#
# Track frame offsets:
#	150
#	13098
#	38391
#	54729
#	66794
#	83604
#	100513
#	117482
#	129816
#
# Disc length: 1989 seconds
#
# Revision: 4
# Processed by: cddbd v1.5PL3 Copyright (c) Steve Scherf et al.
# Submitted via: CDex 1.51
#
DISCID=6407c309
DTITLE=The Yanks - Deep Wood
DYEAR=2003
DGENRE=Blues
TTITLE0=Gone For Good
TTITLE1=Can't Decide
TTITLE2=High Horse
TTITLE3=Laughing Man
TTITLE4=Dick Dangerous
TTITLE5=I Am Your Man
TTITLE6=American Dream
TTITLE7=Tight White Right
TTITLE8=Earthly Burdens
EXTD=YEAR: 2003
EXTT0=
EXTT1=
EXTT2=
EXTT3=
EXTT4=
EXTT5=
EXTT6=
EXTT7=
EXTT8=
PLAYORDER=
